<svg xmlns="http://www.w3.org/2000/svg" viewBox="0 0 41.99 33.77"><defs><style>.cls-1{fill:#f6c;}</style></defs><title>Coffe_Rosa</title><g id="Layer_2" data-name="Layer 2"><g id="Layer_8" data-name="Layer 8"><path class="cls-1" d="M0,0H2.27V5.63H31.19V0h2.28V5.65h4.65A3.71,3.71,0,0,1,42,9.48q0,3.54,0,7.07a3.72,3.72,0,0,1-3.86,3.82H33.49v7.23a6.29,6.29,0,0,1-5.31,6.09,8.76,8.76,0,0,1-1,.07H6.4A6.24,6.24,0,0,1,.13,28.69,6.36,6.36,0,0,1,0,27.39Q0,13.85,0,.3ZM2.28,7.94V27.42a4,4,0,0,0,4.1,4.08q10.44,0,20.87,0a4,4,0,0,0,4-3.94V20.42H16.58a10.56,10.56,0,0,1,3.92,8.17H18.22a8.08,8.08,0,0,0-2.41-5.78,8,8,0,0,0-5.76-2.39V18.13a8,8,0,0,0,5.77-2.4A8.15,8.15,0,0,0,18.23,10H20.5a10.55,10.55,0,0,1-3.88,8.13H31.19V7.94ZM33.5,18.1h4.66a1.45,1.45,0,0,0,1.55-1.5V9.44a1.45,1.45,0,0,0-1.54-1.51H33.5Z"/></g></g></svg>