<?xml version="1.0" encoding="utf-8"?>
<!-- Generator: Adobe Illustrator 22.1.0, SVG Export Plug-In . SVG Version: 6.00 Build 0)  -->
<svg version="1.1" id="Capa_1" xmlns="http://www.w3.org/2000/svg" xmlns:xlink="http://www.w3.org/1999/xlink" x="0px" y="0px"
	 viewBox="0 0 42 33.8" style="enable-background:new 0 0 42 33.8;" xml:space="preserve">
<style type="text/css">
	.st0{fill:#E79898;}
</style>
<title>Coffe_Rosa</title>
<g id="Layer_2">
	<g id="Layer_8">
		<path class="st0" d="M0,0h2.3v5.6h28.9V0h2.3v5.7h4.7c2-0.1,3.8,1.5,3.9,3.5c0,0.1,0,0.2,0,0.3c0,2.4,0,4.7,0,7.1
			c0.1,2.1-1.6,3.8-3.6,3.8c-0.1,0-0.2,0-0.2,0h-4.6v7.2c-0.1,3-2.3,5.6-5.3,6.1c-0.3,0-0.7,0.1-1,0.1H6.4c-3,0.1-5.7-2.1-6.3-5.1
			C0,28.3,0,27.8,0,27.4c0-9,0-18.1,0-27.1V0z M2.3,7.9v19.5c0,2.2,1.7,4,3.9,4.1c0.1,0,0.1,0,0.2,0c7,0,13.9,0,20.9,0
			c2.2,0,4-1.8,4-3.9v-7.1H16.6c2.5,2,3.9,5,3.9,8.2h-2.3c0-2.2-0.9-4.3-2.4-5.8c-1.5-1.5-3.6-2.4-5.8-2.4v-2.3
			c2.2,0,4.3-0.9,5.8-2.4c1.5-1.5,2.4-3.6,2.4-5.7h2.3c0,3.2-1.4,6.1-3.9,8.1h14.6V7.9H2.3z M33.5,18.1h4.7c0.8,0.1,1.5-0.5,1.5-1.3
			c0-0.1,0-0.1,0-0.2V9.4c0-0.8-0.6-1.5-1.4-1.5c-0.1,0-0.1,0-0.2,0h-4.7V18.1z"/>
	</g>
</g>
</svg>
