<svg xmlns="http://www.w3.org/2000/svg" viewBox="0 0 39.33 37.98"><defs><style>.cls-1{fill:#ff6;}</style></defs><title>Coworking_Amarillo</title><g id="Layer_2" data-name="Layer 2"><g id="Layer_7" data-name="Layer 7"><path class="cls-1" d="M26,33.41a6.07,6.07,0,0,1,1.59-3.3L29,31.44c-1.3,2.09-1.3,3.29,0,5l-1.51,1.34c-1.84-1.27-3-1.28-5.08.16a7.15,7.15,0,0,0-.55-.75,6.47,6.47,0,0,0-.79-.64,5.69,5.69,0,0,1,3.23-1.74l-4.63-4.59-4.49,4.62a5.78,5.78,0,0,1,3,1.59l-1.34,1.21a19.11,19.11,0,0,0-2.57-.74,3,3,0,0,0-2.51,1l-1.38-1.47c1.28-1.94,1.28-3.06,0-5l1.41-1.39a5.65,5.65,0,0,1,1.62,3.22,4,4,0,0,0,.37-.27c1.51-1.51,3-3,4.51-4.53a1.11,1.11,0,0,0,.35-.64c0-2.57,0-5.14,0-7.8-.26,0-.48,0-.7,0-2.58,0-5.16,0-7.73,0a1.19,1.19,0,0,0-.77.2c-1.67,1.61-3.3,3.25-5,5a5.94,5.94,0,0,1,3.34,1.63L6.38,28.22c-2-1.28-2.76-1.28-5,0L0,26.82a3.6,3.6,0,0,0,0-4.95l1.41-1.42A5.58,5.58,0,0,1,3,23.57l4.54-4.65L3,14.4a5.6,5.6,0,0,1-1.54,3L.05,16A3.57,3.57,0,0,0,0,11.1L1.47,9.72a3.6,3.6,0,0,0,4.91-.06l1.36,1.48a5.43,5.43,0,0,1-3.19,1.53c.14.18.23.33.35.46,1.48,1.47,2.94,2.95,4.43,4.41a1.36,1.36,0,0,0,.77.39c2.76,0,5.53,0,8.29,0a2.16,2.16,0,0,0,.25-.05c0-.18.05-.36.05-.53,0-2.37,0-4.74,0-7.1a1.13,1.13,0,0,0-.25-.75c-1.55-1.59-3.13-3.16-4.71-4.73a1.62,1.62,0,0,0-.27-.17,5.76,5.76,0,0,1-1.61,3.23L10.48,6.39c1.26-2,1.25-3.12-.09-5L11.91.11A3.62,3.62,0,0,0,16.85,0l1.37,1.45A5.5,5.5,0,0,1,15.16,3l4.66,4.59,4.57-4.56a5.65,5.65,0,0,1-3.17-1.61L22.57.05c2.11,1.31,3.27,1.3,5.07,0L29,1.41a3.69,3.69,0,0,0,0,5L27.51,7.77A5.89,5.89,0,0,1,26,4.52c-1.42,1.42-2.72,2.83-4.13,4.12a3.12,3.12,0,0,0-1.12,2.68c.1,1.92,0,3.84,0,5.76v.81c.26,0,.46.05.66.05,2.53,0,5.06,0,7.59,0a1.59,1.59,0,0,0,1-.4c1.5-1.44,3-2.93,4.44-4.4.11-.11.2-.24.36-.44a5.78,5.78,0,0,1-3.29-1.62L33,9.73a3.6,3.6,0,0,0,4.92-.09l1.38,1.51a3.36,3.36,0,0,0-.94,2.39,3.61,3.61,0,0,0,1,2.52l-1.44,1.36c-.67-.51-.73-.62-1.65-3.06L31.66,19l4.61,4.61a5.56,5.56,0,0,1,1.62-3.15l1.33,1.46c-1.25,2.07-1.24,3.17.1,5l-1.41,1.39a3.65,3.65,0,0,0-5,0l-1.35-1.49A5.86,5.86,0,0,1,34.8,25.2c-1.73-1.73-3.38-3.38-5-5a.82.82,0,0,0-.51-.16H21a1.94,1.94,0,0,0-.29.08V21c0,2.21,0,4.41,0,6.61a1.22,1.22,0,0,0,.21.77C22.58,30,24.23,31.68,26,33.41Z"/></g></g></svg>