<svg xmlns="http://www.w3.org/2000/svg" viewBox="0 0 39.05 39.05"><defs><style>.cls-1{fill:#9f6;}</style></defs><title>Office_verde</title><g id="Layer_2" data-name="Layer 2"><g id="Layer_11" data-name="Layer 11"><path class="cls-1" d="M0,19.64A19.53,19.53,0,1,1,19.65,39.05,19.48,19.48,0,0,1,0,19.64ZM19.4,2.18A17.35,17.35,0,1,0,36.86,19.45,17.37,17.37,0,0,0,19.4,2.18Z"/><path class="cls-1" d="M19.43,8.38a11.15,11.15,0,1,1-11.06,11A11.12,11.12,0,0,1,19.43,8.38Zm9.07,11.1a9,9,0,1,0-9.21,9A9,9,0,0,0,28.5,19.48Z"/></g></g></svg>