<svg xmlns="http://www.w3.org/2000/svg" viewBox="0 0 39.29 39.28"><defs><style>.cls-1{fill:#e79898;}</style></defs><title>Rooms_Cora</title><g id="Layer_2" data-name="Layer 2"><g id="Layer_9" data-name="Layer 9"><path class="cls-1" d="M0,19.62A19.65,19.65,0,1,1,19.64,39.28,19.63,19.63,0,0,1,0,19.62ZM20.73,9.51a9,9,0,0,1,6.77-3.1V8.55c-4.14.46-6.39,2.73-6.82,6.86H18.52a6.47,6.47,0,0,0-1.95-4.8,6.68,6.68,0,0,0-4.8-2V6.4a9.1,9.1,0,0,1,6.73,3V2.26A17.42,17.42,0,0,0,2.24,18.49h7.2A8.94,8.94,0,0,1,7.2,15.42a8.68,8.68,0,0,1-.78-3.65H8.61a6.67,6.67,0,0,0,2,4.8,6.5,6.5,0,0,0,4.79,1.95v2.16c-4.14.43-6.41,2.69-6.86,6.82H6.41a9.06,9.06,0,0,1,3.1-6.78H2.23A17.24,17.24,0,0,0,8.37,32.93a17.06,17.06,0,0,0,10.2,4.12V29.77a9,9,0,0,1-6.8,3.1V30.73c4.16-.45,6.42-2.73,6.84-6.85h2.16a6.4,6.4,0,0,0,2,4.79,6.66,6.66,0,0,0,4.78,2v2.19a9,9,0,0,1-6.71-3v7.2A17.32,17.32,0,0,0,32.9,31a17,17,0,0,0,4.15-10.17h-7.2a9.1,9.1,0,0,1,2.24,3.05,8.69,8.69,0,0,1,.78,3.66H30.7c0-.3-.05-.59-.08-.87a6.73,6.73,0,0,0-6.23-5.85c-.52,0-.52,0-.52-.54V18.55a6.83,6.83,0,0,0,6.82-6.79h2.19a9,9,0,0,1-3.1,6.8H37a17.36,17.36,0,0,0-16.3-16.3Z"/></g></g></svg>