<svg xmlns="http://www.w3.org/2000/svg" viewBox="0 0 32.87 37.9"><title>Virtual_Negro</title><g id="Layer_2" data-name="Layer 2"><g id="Layer_6" data-name="Layer 6"><path d="M17.63,25.19H18c2.13,0,4.26,0,6.39,0a5.32,5.32,0,0,1,5,5.16c0,2.44,0,4.87,0,7.3,0,.07,0,.14,0,.23H3.56s0-.07,0-.11c0-2.47,0-4.93,0-7.4a5.32,5.32,0,0,1,5.34-5.2c2,0,4.08,0,6.12,0h.34V15a8.45,8.45,0,0,1-6.18,2.69V15.46a6.17,6.17,0,0,0,4.36-1.83,6.09,6.09,0,0,0,1.82-4.35h2.23a6,6,0,0,0,1.8,4.35,6.16,6.16,0,0,0,4.36,1.83v2.22A8.47,8.47,0,0,1,17.63,15ZM5.79,35.67H27.16v-5A3.14,3.14,0,0,0,24,27.42q-7.55,0-15.08,0A3.11,3.11,0,0,0,5.78,30.5c0,1.68,0,3.37,0,5A.6.6,0,0,0,5.79,35.67Z"/><path d="M20.44,23V20.72h6.34a3.84,3.84,0,0,0,.45-7.66c-.52-.05-1.05,0-1.56,0,0-.45,0-.83,0-1.22A9.14,9.14,0,0,0,23,5a9.26,9.26,0,0,0-15.8,6.45c0,.44,0,.87.05,1.31V13H6.15A3.85,3.85,0,0,0,6,20.71h7v2.21l-.25,0H5.93a6.08,6.08,0,0,1-1.11-12L5,10.86A10.8,10.8,0,0,1,6.15,6.4a11.21,11.21,0,0,1,9-6.31A11.43,11.43,0,0,1,27.7,9.36c.08.43.12.88.17,1.32a.23.23,0,0,0,.21.25,6.08,6.08,0,0,1-.54,12c-.3,0-.59.05-.88.05H20.44Z"/></g></g></svg>