<?xml version="1.0" encoding="utf-8"?>
<!-- Generator: Adobe Illustrator 23.0.3, SVG Export Plug-In . SVG Version: 6.00 Build 0)  -->
<svg version="1.1" id="Layer_1" xmlns="http://www.w3.org/2000/svg" xmlns:xlink="http://www.w3.org/1999/xlink" x="0px" y="0px"
	 viewBox="0 0 739.5 117.4" style="enable-background:new 0 0 739.5 117.4;" xml:space="preserve">
<style type="text/css">
	.st0{enable-background:new    ;}
	.st1{fill:#FFFF66;}
	.st2{fill:#FFFFFF;}
</style>
<title>construccción</title>
<g>
	<g id="Layer_1-2">
		<g class="st0">
			<path class="st1" d="M2.7,41.3h10.5c0.1,5.2,4,8.4,10.9,8.4c5.7,0,9.1-2.3,9.1-6c0-4.5-4.8-5.4-10.5-6.3
				c-8.3-1.2-19.5-2.7-19.5-14.1c0-9.1,7.5-15,19.6-15c12.2,0,20,6.5,20,16.4H32.7c0.1-5.1-3.7-8-9.6-8c-5.6,0-8.8,2.3-8.8,5.8
				c0,4.6,5.3,5.4,11.3,6.2C33.8,30,44.2,31.8,44.2,43c0,9.2-7.9,15.1-20.4,15.1C11,58.1,2.8,51.4,2.7,41.3z"/>
			<path class="st1" d="M49.5,12.3c0-3.3,2.5-5.8,5.9-5.8c3.5,0,5.9,2.5,5.9,5.8c0,3.4-2.5,5.8-5.9,5.8
				C51.9,18.1,49.5,15.7,49.5,12.3z M50.4,22.8h9.8v34h-9.8V22.8z"/>
			<path class="st1" d="M70.1,45.9V30h-4.8v-7.2h5l1.9-10.8H80l-0.1,10.8h7.8V30h-7.8v15.5c0,2.9,1.7,4.8,4.5,4.8
				c0.9,0,2.4-0.2,3.5-0.5v7c-1.9,0.7-4.7,1.1-6.6,1.1C74.5,57.9,70.1,53,70.1,45.9z"/>
			<path class="st1" d="M92.7,12.3c0-3.3,2.5-5.8,5.9-5.8c3.5,0,5.9,2.5,5.9,5.8c0,3.4-2.5,5.8-5.9,5.8
				C95.2,18.1,92.7,15.7,92.7,12.3z M93.7,22.8h9.8v34h-9.8V22.8z"/>
			<path class="st1" d="M109.2,39.8c0-11,7.5-18.1,18.9-18.1c11.3,0,18.9,7.1,18.9,18.1c0,11-7.6,18.1-18.9,18.1
				C116.7,57.9,109.2,50.8,109.2,39.8z M137,39.8c0-5.6-3.7-9.6-9-9.6c-5.3,0-9,4-9,9.6s3.7,9.7,9,9.7C133.3,49.5,137,45.5,137,39.8
				z"/>
			<path class="st1" d="M166.5,39.6c0-10.6,7.8-17.8,18.7-17.8c10.8,0,18.3,7.2,18.3,17.9c0,0.9,0,2.3-0.1,3h-26.7
				c0.8,4.8,4.2,7.9,9,7.9c3.8,0,6.7-1.9,8.2-4.6l8.4,2.1c-2.1,6.1-8.7,9.8-16.9,9.8C174.2,57.9,166.5,50.5,166.5,39.6z M193.4,36.6
				c-0.6-4.3-3.9-7.5-8.5-7.5c-4.4,0-7.6,3-8.4,7.5H193.4z"/>
			<path class="st1" d="M208.9,22.8h9.8v4.8h0.7c2.5-3.8,5.8-5.8,9.9-5.8c7.7,0,12.8,6,12.8,14.1v20.8h-9.8V37.4
				c0-4.2-2.4-7.1-6.4-7.1c-3.9,0-7.2,3.1-7.2,7.4v19.1h-9.8V22.8z"/>
			<path class="st1" d="M262.7,39.8c0-10.8,7.5-18.1,18.5-18.1c9.2,0,16.3,5.2,17.4,13.2l-9.2,1.2c-0.9-3.7-4.3-6.3-8.1-6.3
				c-5,0-8.8,4.1-8.8,10s3.7,10,8.7,10c3.9,0,7.2-2.6,8.2-6.2l9.2,1.1c-1.3,8-8.4,13.2-17.5,13.2C270.4,57.9,262.7,50.6,262.7,39.8z
				"/>
			<path class="st1" d="M302.8,39.8c0-11,7.5-18.1,18.9-18.1c11.3,0,18.9,7.1,18.9,18.1c0,11-7.6,18.1-18.9,18.1
				C310.3,57.9,302.8,50.8,302.8,39.8z M330.6,39.8c0-5.6-3.7-9.6-9-9.6c-5.3,0-9,4-9,9.6s3.7,9.7,9,9.7
				C326.8,49.5,330.6,45.5,330.6,39.8z"/>
			<path class="st1" d="M345.8,22.8h9.8v4.8h0.7c2.5-3.8,5.8-5.8,9.9-5.8c7.7,0,12.8,6,12.8,14.1v20.8h-9.8V37.4
				c0-4.2-2.4-7.1-6.4-7.1c-3.9,0-7.2,3.1-7.2,7.4v19.1h-9.8V22.8z"/>
			<path class="st1" d="M384.1,45.5h8.7c0,3.6,2.9,6,7.8,6c3.7,0,6.2-1.6,6.2-4.2c0-3.1-3.5-3.5-7.6-3.9
				c-6.2-0.7-14.6-1.7-14.6-10.4c0-7,6-11.3,15.1-11.3c9.1,0,15.7,4.4,15.7,11.5h-9c-0.1-3.1-2.8-5-6.7-5c-3.6,0-6,1.6-6,4
				c0,3.2,4.2,3.4,8.9,3.9c6.2,0.7,13.9,2.3,13.9,10.4c0,7.2-6,11.5-16.1,11.5C390.2,58,384.1,53.3,384.1,45.5z"/>
			<path class="st1" d="M424.6,45.9V30h-4.8v-7.2h5l1.9-10.8h7.7l-0.1,10.8h7.8V30h-7.8v15.5c0,2.9,1.7,4.8,4.5,4.8
				c0.9,0,2.4-0.2,3.5-0.5v7c-1.9,0.7-4.7,1.1-6.6,1.1C428.9,57.9,424.6,53,424.6,45.9z"/>
			<path class="st1" d="M447.9,22.8h9.7v4.6h0.7c1.5-3.2,4.8-5.3,8.4-5.3c1.4,0,2.8,0.3,3.8,0.9v8.8c-1.9-0.9-4.2-1.3-5.6-1.3
				c-4.3,0-7.2,3.6-7.2,8.8v17.4h-9.8V22.8z"/>
			<path class="st1" d="M507.8,56.8H498V52h-0.7c-2.5,3.8-5.8,5.8-9.9,5.8c-7.7,0-12.8-6-12.8-14.1V22.8h9.8v19.4
				c0,4.2,2.4,7.1,6.4,7.1c3.9,0,7.2-3.1,7.2-7.4V22.8h9.8V56.8z"/>
			<path class="st1" d="M513.2,39.8c0-10.8,7.5-18.1,18.5-18.1c9.2,0,16.3,5.2,17.4,13.2l-9.2,1.2c-0.9-3.7-4.3-6.3-8.1-6.3
				c-5,0-8.8,4.1-8.8,10s3.7,10,8.7,10c3.9,0,7.2-2.6,8.2-6.2l9.2,1.1c-1.3,8-8.4,13.2-17.5,13.2C520.9,57.9,513.2,50.6,513.2,39.8z
				"/>
			<path class="st1" d="M553.3,39.8c0-10.8,7.5-18.1,18.5-18.1c9.2,0,16.3,5.2,17.4,13.2l-9.2,1.2c-0.9-3.7-4.3-6.3-8.1-6.3
				c-5,0-8.8,4.1-8.8,10s3.7,10,8.7,10c3.9,0,7.2-2.6,8.2-6.2l9.2,1.1c-1.3,8-8.4,13.2-17.5,13.2C561,57.9,553.3,50.6,553.3,39.8z"
				/>
			<path class="st1" d="M594,12.3c0-3.3,2.5-5.8,5.9-5.8c3.5,0,5.9,2.5,5.9,5.8c0,3.4-2.5,5.8-5.9,5.8C596.5,18.1,594,15.7,594,12.3
				z M595,22.8h9.8v34H595V22.8z"/>
			<path class="st1" d="M610.5,39.8c0-11,7.5-18.1,18.9-18.1c11.3,0,18.9,7.1,18.9,18.1c0,11-7.6,18.1-18.9,18.1
				C618,57.9,610.5,50.8,610.5,39.8z M638.3,39.8c0-5.6-3.7-9.6-9-9.6c-5.3,0-9,4-9,9.6s3.7,9.7,9,9.7
				C634.6,49.5,638.3,45.5,638.3,39.8z M625.2,17.7l7-10.1h9L633,17.7H625.2z"/>
			<path class="st1" d="M653.6,22.8h9.8v4.8h0.7c2.5-3.8,5.8-5.8,9.9-5.8c7.7,0,12.8,6,12.8,14.1v20.8h-9.8V37.4
				c0-4.2-2.4-7.1-6.4-7.1c-3.9,0-7.2,3.1-7.2,7.4v19.1h-9.8V22.8z"/>
		</g>
		<path class="st2" d="M728.4,50h-31v6.6H727l0,0h1.3c2.5,0,4.6,2,4.6,4.6v22.8c0,2.5-2,4.6-4.6,4.6h-45.7
			C689.2,83,693,74.9,693,66.3h-6.6c0,11.5-8.7,21-20.1,22.1h-2.1v6.7c12.3,0,22.2,10,22.2,22.3h6.6c0-8.7-3.9-16.9-10.7-22.4h46
			c6.2,0,11.2-5,11.2-11.2V61.1C739.5,55,734.5,50,728.4,50z"/>
		<path class="st2" d="M458.4,77.8c-1.8-0.1-3.6,0.5-5,1.6c-1.4,1.2-2.4,2.8-2.8,4.5v-5.6h-5V101h5V90.8c-0.1-2.2,0.5-4.4,1.8-6.2
			c1.1-1.4,2.8-2.3,4.5-2.2c1.1-0.1,2.1,0.3,2.9,1c0.7,0.7,1,1.9,1,3.7v14h5V87c0-3.1-0.7-5.4-2-6.9
			C462.4,78.5,460.4,77.7,458.4,77.8z"/>
		<path class="st2" d="M480.6,95.9c-0.8-0.9-1.2-2.1-1.1-3.2v-9.2h6.6v-4.8h-7.7c2.1-2.4,3.3-5.6,3.2-8.8H477c0,4.8-3.9,8.8-8.8,8.8
			v4.8h6.4v9.2c0,1.2,0.2,2.4,0.6,3.6c0.4,1,1,2,1.8,2.8c0.8,0.8,1.8,1.4,2.8,1.8c1.2,0.4,2.4,0.7,3.6,0.7h3.1V97h-3.1
			C482.4,97.1,481.4,96.7,480.6,95.9z"/>
		<path class="st2" d="M512.9,85.8c-0.5-1.6-1.4-3.1-2.5-4.3c-1.1-1.2-2.4-2.1-3.8-2.7c-1.6-0.6-3.3-1-5-0.9c-1.6,0-3.3,0.3-4.8,0.9
			c-1.4,0.6-2.7,1.4-3.8,2.5c-1.1,1.1-1.9,2.3-2.4,3.8c-0.6,1.5-0.9,3.1-0.9,4.7c0,1.6,0.3,3.3,0.9,4.8c0.6,1.4,1.5,2.7,2.6,3.7
			c1.1,1.1,2.5,1.9,3.9,2.4c1.6,0.6,3.2,0.9,4.9,0.9c1.8,0,3.6-0.2,5.3-0.8c1.8-0.6,3.3-1.7,4.6-3l-2.6-3.5c-0.9,0.9-2,1.5-3.1,2
			c-1.4,0.5-2.8,0.8-4.2,0.8c-1.8,0.1-3.6-0.4-5-1.5c-1.2-1-2-2.4-2.2-3.9h18.9C513.8,89.6,513.5,87.6,512.9,85.8z M495.1,87.2
			c0.2-1.4,1.1-2.7,2.3-3.5c1.2-0.9,2.7-1.3,4.3-1.3c1.5,0,3,0.4,4.2,1.3c1.2,0.8,2,2.1,2.3,3.5H495.1z"/>
		<path class="st2" d="M522.3,81.3v-3h-5v23.2h5V90.3c0.7-4.2,4.4-7.3,8.6-7.3v-4.8C527.7,78.2,524.7,79.3,522.3,81.3z"/>
		<polygon class="st2" points="420.9,101 441.1,101 441.1,96.4 425.9,96.4 425.9,88.2 437.8,88.2 437.8,83.7 425.9,83.7 425.9,75.9 
			441.1,75.9 441.1,71.4 420.9,71.4 		"/>
		<path class="st2" d="M578.9,78.9l-4.6,22.5h-3.9l-3.6-16.5l-3.4,16.5h-3.9L555,78.9h3.5l3.3,18l3.5-18h3.3l3.6,18l3.3-18H578.9z"
			/>
		<path class="st2" d="M604.7,90.2c0,1.6-0.3,3.3-0.8,4.8c-0.5,1.4-1.3,2.6-2.4,3.7c-1.1,1-2.3,1.9-3.7,2.4
			c-1.5,0.6-3.2,0.9-4.8,0.9c-1.6,0-3.3-0.3-4.8-0.9c-1.4-0.5-2.7-1.4-3.7-2.4c-1.1-1-1.9-2.3-2.4-3.7c-0.6-1.5-0.9-3.1-0.8-4.8
			c0-1.6,0.3-3.2,0.8-4.8c0.5-1.4,1.3-2.7,2.4-3.8c1.1-1.1,2.3-1.9,3.7-2.4c1.5-0.6,3.2-0.9,4.8-0.9c1.7,0,3.3,0.3,4.8,0.9
			c1.4,0.5,2.7,1.4,3.7,2.4c1.1,1.1,1.9,2.4,2.4,3.8C604.5,87,604.7,88.6,604.7,90.2z M601.4,90.2c0-1.2-0.2-2.4-0.6-3.6
			c-0.4-1.1-0.9-2-1.7-2.8c-0.8-0.8-1.7-1.5-2.7-1.9c-2.3-0.9-4.8-0.9-7.1,0c-1,0.4-1.9,1.1-2.7,1.9c-0.7,0.8-1.3,1.8-1.7,2.9
			c-0.8,2.3-0.8,4.8,0,7.1c0.4,1,0.9,2,1.7,2.8c0.7,0.8,1.7,1.4,2.7,1.8c2.3,0.9,4.8,0.9,7.1,0c1-0.4,1.9-1.1,2.7-1.8
			c0.8-0.8,1.3-1.8,1.7-2.8C601.2,92.6,601.4,91.4,601.4,90.2L601.4,90.2z"/>
		<path class="st2" d="M628.9,82.1c-1.3-0.6-2.8-0.9-4.2-0.9c-1.3,0-2.5,0.3-3.6,0.9c-1,0.6-2,1.3-2.7,2.3c-0.8,1-1.3,2.1-1.7,3.2
			c-0.4,1.2-0.6,2.5-0.6,3.7v7.3h5.1v2.8h-13.5v-2.8h5.1V81.7h-5.1v-2.8h8.4v5.7c1.5-4.1,4.4-6.2,8.6-6.2c1,0,2,0.1,3,0.2
			c0.8,0.1,1.6,0.4,2.3,0.8L628.9,82.1z"/>
		<path class="st2" d="M656.1,101.4h-4.7l-9.2-10.1l-4.1,3.7v6.4h-3.3V69.9h3.3V91L651,78.9h4.7l-11.3,10.3L656.1,101.4z"/>
		<rect x="530.9" y="104.2" class="st2" width="20.2" height="4.5"/>
	</g>
</g>
</svg>
