<svg xmlns="http://www.w3.org/2000/svg" viewBox="0 0 249.03 30"><defs><style>.cls-1{font-size:16px;font-family:ObjectSans-Regular, Object Sans;}.cls-1,.cls-3,.cls-4{fill:#ff6;}.cls-2{letter-spacing:-0.01em;}.cls-3{fill-rule:evenodd;}</style></defs><title>Enter_2019</title><g id="Layer_2" data-name="Layer 2"><g id="Layer_1-2" data-name="Layer 1"><text class="cls-1" transform="translate(193 21)"><tspan class="cls-2">© 201</tspan><tspan x="45.9" y="0">9</tspan></text><path class="cls-3" d="M27.51,6a5.8,5.8,0,0,0-3.72,1.2,6.09,6.09,0,0,0-2.07,3.36V6.39H18V23h3.72V15.55A7.23,7.23,0,0,1,23,11,4.11,4.11,0,0,1,26.4,9.31a2.87,2.87,0,0,1,2.14.75,3.83,3.83,0,0,1,.74,2.69V23H33V12.75a7.54,7.54,0,0,0-1.46-5.09,5.06,5.06,0,0,0-4-1.66"/><path class="cls-3" d="M44.5,19.76a3.38,3.38,0,0,1-.81-2.48v-7h5.06V6.67H42.86A10.19,10.19,0,0,0,45.35,0H41.71A6.7,6.7,0,0,1,35,6.67v3.62h4.85v7A7.51,7.51,0,0,0,40.34,20a6.22,6.22,0,0,0,1.38,2.13,6.31,6.31,0,0,0,2.15,1.38,7.57,7.57,0,0,0,2.79.5H49V20.57H46.66a3,3,0,0,1-2.16-.81"/><path class="cls-3" d="M68.33,12.05a9.84,9.84,0,0,0-1.86-3.29,8,8,0,0,0-2.86-2A9.54,9.54,0,0,0,59.88,6a9.36,9.36,0,0,0-3.61.67,8.31,8.31,0,0,0-2.81,1.88,8.58,8.58,0,0,0-1.82,2.86A10,10,0,0,0,51,15a9.17,9.17,0,0,0,.7,3.65,8.73,8.73,0,0,0,1.93,2.83,9,9,0,0,0,2.93,1.85,9.91,9.91,0,0,0,3.65.66,12.74,12.74,0,0,0,4-.6,9,9,0,0,0,3.46-2.26l-1.93-2.69A7.39,7.39,0,0,1,63.4,20a8,8,0,0,1-3.19.58,5.59,5.59,0,0,1-3.73-1.17,4.74,4.74,0,0,1-1.67-2.95H69A13.38,13.38,0,0,0,68.33,12.05ZM55,13.09a4,4,0,0,1,1.71-2.66,5.37,5.37,0,0,1,3.19-1,5.3,5.3,0,0,1,3.18,1,4,4,0,0,1,1.69,2.66Z"/><path class="cls-3" d="M75.67,9.29V7.11H72V24h3.67V15.8A6.43,6.43,0,0,1,82,10.47V7a9.88,9.88,0,0,0-6.33,2.29"/><polygon class="cls-3" points="0 23 15 23 15 19.64 3.72 19.64 3.72 13.47 12.52 13.47 12.52 10.11 3.72 10.11 3.72 4.36 15 4.36 15 1 0 1 0 23"/><polygon class="cls-3" points="119 7 115.56 24 112.65 24 109.94 11.52 107.38 24 104.47 24 101 7 103.66 7 106.11 20.61 108.75 7 111.22 7 113.93 20.61 116.38 7 119 7"/><path class="cls-3" d="M138,15.05a9.87,9.87,0,0,1-.64,3.64,7.8,7.8,0,0,1-1.82,2.81,8.69,8.69,0,0,1-2.85,1.84A10,10,0,0,1,129,24a9.86,9.86,0,0,1-3.67-.66,8.69,8.69,0,0,1-2.85-1.84,7.8,7.8,0,0,1-1.82-2.81,9.87,9.87,0,0,1-.64-3.64,10.06,10.06,0,0,1,.64-3.64,8,8,0,0,1,1.82-2.88,8.58,8.58,0,0,1,2.85-1.86A9.67,9.67,0,0,1,129,6a9.77,9.77,0,0,1,3.71.67,8.58,8.58,0,0,1,2.85,1.86,8,8,0,0,1,1.82,2.88,10.06,10.06,0,0,1,.64,3.64m-2.53,0a8.17,8.17,0,0,0-.43-2.72,6.44,6.44,0,0,0-1.28-2.18,6.15,6.15,0,0,0-2.06-1.47,7.24,7.24,0,0,0-5.44,0,6.06,6.06,0,0,0-2,1.47A6.56,6.56,0,0,0,123,12.34a8.17,8.17,0,0,0-.43,2.72,8.15,8.15,0,0,0,.43,2.71,6.09,6.09,0,0,0,1.26,2.14,5.94,5.94,0,0,0,2,1.42,7.51,7.51,0,0,0,5.44,0A5.88,5.88,0,0,0,135,17.77a8.15,8.15,0,0,0,.43-2.71"/><path class="cls-3" d="M156.17,9.74a7.3,7.3,0,0,0-3.23-.66,5.76,5.76,0,0,0-2.75.65,6.46,6.46,0,0,0-2.06,1.68,7.6,7.6,0,0,0-1.29,2.38,8.69,8.69,0,0,0-.45,2.77v5.35h3.87V24H140V21.91h3.87V9.48H140V7.39h6.39v4.17A6.46,6.46,0,0,1,152.94,7a13.66,13.66,0,0,1,2.27.16,6.26,6.26,0,0,1,1.79.58Z"/><polygon class="cls-3" points="176.64 24.67 172.96 24.67 165.77 16.82 162.6 19.71 162.6 24.67 160.01 24.67 160.01 0.15 162.6 0.15 162.6 16.59 172.62 7.16 176.32 7.16 167.51 15.2 176.64 24.67"/><rect class="cls-4" x="83" y="27" width="15" height="3"/><rect class="cls-4" x="83" y="27" width="15" height="3"/><rect class="cls-4" x="83" y="27" width="15" height="3"/></g></g></svg>