<svg xmlns="http://www.w3.org/2000/svg" viewBox="0 0 61.19 49.21"><title>Cafe_1</title><g id="Layer_2" data-name="Layer 2"><g id="Layer_1-2" data-name="Layer 1"><path d="M0,0H3.32V8.21H45.49V0H48.8V8.23h6.75a5.4,5.4,0,0,1,5.64,5.58v10.3a5.41,5.41,0,0,1-5.62,5.57H48.8V40a9.11,9.11,0,0,1-7.41,9.09,8.05,8.05,0,0,1-1.54.16H9A9.13,9.13,0,0,1,.14,41.56,13.8,13.8,0,0,1,0,39.74C0,26.68,0,0,0,0ZM45.46,26.39V11.57H3.32V40.33a5.89,5.89,0,0,0,5.83,5.59H39.69a5.86,5.86,0,0,0,5.8-5.77l0-10.4H24.15a15.36,15.36,0,0,1,5.72,11.92H26.56a11.73,11.73,0,0,0-3.5-8.41,11.56,11.56,0,0,0-8.42-3.51V26.42A11.64,11.64,0,0,0,23,22.93a11.8,11.8,0,0,0,3.53-8.39h3.3A15.4,15.4,0,0,1,24.2,26.39Zm3.37-14.84V26.38l6.8,0a2.11,2.11,0,0,0,2.25-2.19q0-5.21,0-10.41a2.1,2.1,0,0,0-2.23-2.21Z"/></g></g></svg>