<svg xmlns="http://www.w3.org/2000/svg" viewBox="0 0 66.74 49.44"><defs><style>.cls-1{fill:#232322;fill-rule:evenodd;}</style></defs><title>Pantallas</title><g id="Layer_2" data-name="Layer 2"><g id="Layer_1-2" data-name="Layer 1"><polygon class="cls-1" points="32.59 17.07 63.71 49.44 66.25 46.97 35.12 14.6 32.59 17.07"/><path class="cls-1" d="M35.15,38.12l-2.5-2.5a13.21,13.21,0,0,0,0-18.58l2.5-2.5a16.77,16.77,0,0,1,0,23.58"/><path class="cls-1" d="M44.38,21.92A16.47,16.47,0,0,1,32.65,17l2.5-2.5a13,13,0,0,0,18.46,0l2.5,2.5a16.47,16.47,0,0,1-11.73,4.88"/><polygon class="cls-1" points="51.6 47.26 0 47.26 0 0 66.74 0 66.74 33.53 63.22 33.53 63.22 3.55 3.53 3.55 3.53 43.71 51.6 43.71 51.6 47.26"/></g></g></svg>