<svg xmlns="http://www.w3.org/2000/svg" viewBox="0 0 22.41 22.32"><defs><style>.cls-1{fill:#fff;}</style></defs><title>IG_Negro</title><g id="Layer_2" data-name="Layer 2"><g id="Layer_1-2" data-name="Layer 1"><path d="M7.88,0h6.6l.22,0c.84.07,1.69.08,2.53.21a5.73,5.73,0,0,1,4.05,2.55,6.86,6.86,0,0,1,1,3.38c.05.58.07,1.15.1,1.72v6.56l0,.26c-.05.74-.06,1.49-.16,2.23a5.79,5.79,0,0,1-4.41,5,15.45,15.45,0,0,1-3.52.34q-3.3,0-6.59,0a15.6,15.6,0,0,1-2.56-.2A5.72,5.72,0,0,1,.3,17.59,14,14,0,0,1,0,14.24Q0,11,0,7.67a16.39,16.39,0,0,1,.2-2.53,5.68,5.68,0,0,1,2.54-4,7,7,0,0,1,3.39-1C6.73.05,7.31,0,7.88,0Zm3.31,20.33v0c.94,0,1.87,0,2.81,0s1.76-.05,2.63-.15a4.1,4.1,0,0,0,2.29-.95,4.05,4.05,0,0,0,1.35-3c.08-1.3.1-2.6.12-3.91s0-2.64,0-4c0-.87-.05-1.74-.14-2.61a3.83,3.83,0,0,0-1.36-2.67,4.5,4.5,0,0,0-2.6-1C15,2.06,13.62,2,12.29,2S9.71,2,8.42,2c-.89,0-1.79.06-2.67.15a3.94,3.94,0,0,0-2.27.95,4.07,4.07,0,0,0-1.35,3c-.08,1.32-.1,2.65-.12,4S2,13,2,14.47a12,12,0,0,0,.22,2.6A3.67,3.67,0,0,0,5,20a7.32,7.32,0,0,0,1.68.24C8.2,20.29,9.69,20.3,11.19,20.33Z"/><path class="cls-1" d="M11.19,20.33c-1.5,0-3,0-4.49-.1A7.32,7.32,0,0,1,5,20a3.67,3.67,0,0,1-2.76-2.92A12,12,0,0,1,2,14.47c0-1.47,0-2.93,0-4.4s0-2.66.12-4a4.07,4.07,0,0,1,1.35-3,3.94,3.94,0,0,1,2.27-.95c.88-.09,1.78-.13,2.67-.15C9.71,2,11,2,12.29,2s2.66,0,4,.11a4.5,4.5,0,0,1,2.6,1,3.83,3.83,0,0,1,1.36,2.67c.09.87.12,1.74.14,2.61,0,1.32,0,2.64,0,4s0,2.61-.12,3.91a4.05,4.05,0,0,1-1.35,3,4.1,4.1,0,0,1-2.29.95c-.87.1-1.75.12-2.63.15s-1.87,0-2.81,0Zm5.75-9.17a5.74,5.74,0,0,0-5.73-5.74,5.86,5.86,0,0,0-5.8,5.73,5.86,5.86,0,0,0,5.78,5.75A5.75,5.75,0,0,0,16.94,11.16Zm-1.13-6a1.35,1.35,0,0,0,1.33,1.35,1.46,1.46,0,0,0,1.41-1.33,1.46,1.46,0,0,0-1.4-1.36A1.36,1.36,0,0,0,15.81,5.2Z"/><path d="M16.94,11.16a5.75,5.75,0,0,1-5.75,5.74,5.86,5.86,0,0,1-5.78-5.75,5.86,5.86,0,0,1,5.8-5.73A5.74,5.74,0,0,1,16.94,11.16Zm-5.76,3.71a3.71,3.71,0,1,0-3.69-3.73A3.71,3.71,0,0,0,11.18,14.87Z"/><path d="M15.81,5.2a1.36,1.36,0,0,1,1.34-1.34,1.46,1.46,0,0,1,1.4,1.36,1.46,1.46,0,0,1-1.41,1.33A1.35,1.35,0,0,1,15.81,5.2Z"/><path class="cls-1" d="M11.18,14.87a3.71,3.71,0,1,1,3.73-3.68A3.71,3.71,0,0,1,11.18,14.87Z"/></g></g></svg>