<svg xmlns="http://www.w3.org/2000/svg" viewBox="0 0 44 35"><defs><style>.cls-1{fill:#232322;fill-rule:evenodd;}</style></defs><title>Cafe</title><g id="Layer_2" data-name="Layer 2"><g id="Layer_1-2" data-name="Layer 1"><path class="cls-1" d="M39.67,6H35V0H31.58V6H3.42V0H0V28a7,7,0,0,0,6.93,7H28.07A7,7,0,0,0,35,28V22l4.67,0A4.32,4.32,0,0,0,44,17.65V10.3A4.32,4.32,0,0,0,39.67,6ZM28.07,31.55H6.93A3.53,3.53,0,0,1,3.42,28V9.41H31.58V28A3.53,3.53,0,0,1,28.07,31.55Zm12.5-13.9a.9.9,0,0,1-.91.9l-4.66,0V9.41h4.67a.89.89,0,0,1,.9.89Z"/></g></g></svg>