<svg xmlns="http://www.w3.org/2000/svg" viewBox="0 0 48 44"><defs><style>.cls-1{fill:none;stroke:#222221;stroke-miterlimit:10;stroke-width:4px;}.cls-2{fill:#222221;fill-rule:evenodd;}</style></defs><title>eventos</title><g id="Layer_2" data-name="Layer 2"><g id="Layer_1-2" data-name="Layer 1"><path class="cls-1" d="M46,14H2V7.13A5.07,5.07,0,0,1,7,2H41a5.07,5.07,0,0,1,5,5.13Z"/><rect class="cls-1" x="2" y="14" width="44" height="28"/><path class="cls-2" d="M22,34H15.56V32.15h2.16V24.76a2,2,0,0,1-.5.86,2.69,2.69,0,0,1-.85.63,4.54,4.54,0,0,1-1.11.39,5.86,5.86,0,0,1-1.26.14V24.72a4.18,4.18,0,0,0,1.36-.23,3.61,3.61,0,0,0,1.19-.68,3.55,3.55,0,0,0,.85-1.15A4,4,0,0,0,17.72,21h2.13V32.15H22Z"/><path class="cls-2" d="M34,24.71a3.92,3.92,0,0,1-.5,1.84,6.89,6.89,0,0,1-1.38,1.79L28,32.18h3.9V30.42h1.92V34H25.2V32.09l5.36-4.93a5.19,5.19,0,0,0,1-1.29,2.62,2.62,0,0,0,.31-1.16,1.79,1.79,0,0,0-.2-.86,1.72,1.72,0,0,0-.51-.59,1.78,1.78,0,0,0-.71-.33,3.07,3.07,0,0,0-.79-.11,2.69,2.69,0,0,0-2,.71A2.78,2.78,0,0,0,27,25.61H25a4.61,4.61,0,0,1,1.2-3.38A4.64,4.64,0,0,1,29.67,21a5.68,5.68,0,0,1,1.65.24,4.28,4.28,0,0,1,1.38.7,3.41,3.41,0,0,1,.95,1.17,3.58,3.58,0,0,1,.35,1.6"/></g></g></svg>