<svg xmlns="http://www.w3.org/2000/svg" viewBox="0 0 49.82 43.64"><defs><style>.cls-1{fill:none;stroke:#232322;stroke-miterlimit:10;stroke-width:3px;}</style></defs><title>Limpieza</title><g id="Layer_2" data-name="Layer 2"><g id="Layer_1-2" data-name="Layer 1"><path class="cls-1" d="M0,7.32A7.33,7.33,0,0,0,7.33,0"/><path class="cls-1" d="M14.66,7.32A7.33,7.33,0,0,1,7.33,0"/><path class="cls-1" d="M14.66,7.32a7.32,7.32,0,0,0-7.33,7.31"/><path class="cls-1" d="M0,7.32a7.32,7.32,0,0,1,7.33,7.31"/><path class="cls-1" d="M7.33,36.32A7.32,7.32,0,0,0,14.66,29"/><path class="cls-1" d="M22,36.32A7.32,7.32,0,0,1,14.66,29"/><path class="cls-1" d="M22,36.32a7.33,7.33,0,0,0-7.33,7.32"/><path class="cls-1" d="M7.33,36.32a7.33,7.33,0,0,1,7.33,7.32"/><path class="cls-1" d="M20.06,19.9A14.87,14.87,0,0,0,34.94,5"/><path class="cls-1" d="M49.82,19.9A14.87,14.87,0,0,1,34.94,5"/><path class="cls-1" d="M49.82,19.9A14.87,14.87,0,0,0,34.94,34.76"/><path class="cls-1" d="M20.06,19.9A14.87,14.87,0,0,1,34.94,34.76"/></g></g></svg>