<svg xmlns="http://www.w3.org/2000/svg" viewBox="0 0 53.8 56.97"><defs><style>.cls-1{fill:none;stroke:#232322;stroke-miterlimit:10;stroke-width:4px;}</style></defs><title>print_center</title><g id="Layer_2" data-name="Layer 2"><g id="Layer_1-2" data-name="Layer 1"><path class="cls-1" d="M40.62,44.8v3.94A6.24,6.24,0,0,1,34.36,55H19.66a6.24,6.24,0,0,1-6.26-6.23V44.8a6.24,6.24,0,0,1,6.26-6.23h14.7A6.24,6.24,0,0,1,40.62,44.8Z"/><path class="cls-1" d="M13.4,44.91H8.26A6.25,6.25,0,0,1,2,38.67V35.32a6.24,6.24,0,0,1,6.26-6.23H45.54a6.24,6.24,0,0,1,6.26,6.23v3.35a6.25,6.25,0,0,1-6.26,6.24H40.62"/><path class="cls-1" d="M34.36,2H19.66A6.24,6.24,0,0,0,13.4,8.23V29.09H40.62V8.23A6.24,6.24,0,0,0,34.36,2Z"/></g></g></svg>