<svg xmlns="http://www.w3.org/2000/svg" viewBox="0 0 39 63.84"><defs><style>.cls-1{fill:#232322;fill-rule:evenodd;}</style></defs><title>Recepción</title><g id="Layer_2" data-name="Layer 2"><g id="Layer_1-2" data-name="Layer 1"><path class="cls-1" d="M39,63.84H0V43.05a9.24,9.24,0,0,1,9.24-9.21H29.76A9.24,9.24,0,0,1,39,43.05ZM3.83,60H35.17v-17a5.42,5.42,0,0,0-5.41-5.4H9.24a5.42,5.42,0,0,0-5.41,5.4Z"/><path class="cls-1" d="M19.49,26.82A13.41,13.41,0,1,1,32.9,13.41,13.43,13.43,0,0,1,19.49,26.82m0-23.07a9.66,9.66,0,1,0,9.66,9.66,9.67,9.67,0,0,0-9.66-9.66"/><path class="cls-1" d="M20.33,57.84H17.67L9.85,50.23a6.34,6.34,0,0,1-1.23-1.65,6.06,6.06,0,0,1,.25-5.81,5.93,5.93,0,0,1,4.87-2.93h.35A6.82,6.82,0,0,1,19,41.92a6.82,6.82,0,0,1,4.91-2.08h.36a5.94,5.94,0,0,1,4.86,2.93,6.06,6.06,0,0,1,.25,5.81,6.34,6.34,0,0,1-1.23,1.65ZM14.09,43.58h-.16a2.18,2.18,0,0,0-1.8,1.08A2.36,2.36,0,0,0,12,46.93a2.81,2.81,0,0,0,.48.62L19,53.87l6.5-6.32a2.81,2.81,0,0,0,.48-.62,2.36,2.36,0,0,0-.11-2.26,2.18,2.18,0,0,0-1.8-1.08h-.16a3,3,0,0,0-3,3H17.11A3,3,0,0,0,14.09,43.58Z"/></g></g></svg>