<svg xmlns="http://www.w3.org/2000/svg" viewBox="0 0 50.86 49.45"><defs><style>.cls-1{fill:#222221;fill-rule:evenodd;}</style></defs><title>Telefonía</title><g id="Layer_2" data-name="Layer 2"><g id="Layer_1-2" data-name="Layer 1"><path class="cls-1" d="M35.06,49.45a8.13,8.13,0,0,1-5.78-2.39l-27.12-27a7.33,7.33,0,0,1,0-10.39L9.82,2.08H12.4L22,11.64V14.2L17.5,18.69,31.25,32.36l4.51-4.49h2.58L48,37.44V40l-7.1,7.06A8.14,8.14,0,0,1,35.06,49.45Zm-24-43.53L4.74,12.26a3.72,3.72,0,0,0,0,5.27l27.11,27a4.58,4.58,0,0,0,6.43,0l5.81-5.78-7-7L32.54,36.2H30L13.64,20V17.41l4.51-4.49Z"/><path class="cls-1" d="M50.16,3.29l.7-.69,0,0h0L49.76,1.5,48.28,0h0l0,0a9.86,9.86,0,0,1-7,2.88,9.86,9.86,0,0,1-7-2.88L31.72,2.56A13.44,13.44,0,0,0,41.27,6.5l.54,0L28.38,19.83,31,22.39,44.32,9.1A13.3,13.3,0,0,0,48.25,19l2.57-2.56A9.79,9.79,0,0,1,50.16,3.29Z"/></g></g></svg>