<svg xmlns="http://www.w3.org/2000/svg" viewBox="0 0 203.74 117.84"><defs><style>.cls-1{fill:#ff6;}</style></defs><title>Enter_Amarillo</title><g id="Layer_2" data-name="Layer 2"><g id="Layer_1-2" data-name="Layer 1"><polygon class="cls-1" points="18.77 90.67 14.84 70.97 11.25 70.97 7.42 90.67 3.85 70.97 0 70.97 5.04 95.58 9.27 95.58 12.99 77.51 16.93 95.58 21.15 95.58 26.14 70.97 22.34 70.97 18.77 90.67"/><path class="cls-1" d="M50.87,74a12.14,12.14,0,0,0-4.08-2.67,14,14,0,0,0-5.31-1,13.86,13.86,0,0,0-5.25,1A12,12,0,0,0,32.15,74a11.21,11.21,0,0,0-2.61,4.11,14.65,14.65,0,0,0-.92,5.22,14.32,14.32,0,0,0,.92,5.23,11.1,11.1,0,0,0,2.61,4,12.1,12.1,0,0,0,4.08,2.63,13.86,13.86,0,0,0,5.25,1,14,14,0,0,0,5.31-1,12.2,12.2,0,0,0,4.08-2.63,11.25,11.25,0,0,0,2.62-4,14.53,14.53,0,0,0,.91-5.23,14.87,14.87,0,0,0-.91-5.22A11.36,11.36,0,0,0,50.87,74Zm-.71,13.23a8.56,8.56,0,0,1-1.84,3.07,8.67,8.67,0,0,1-2.94,2,10.76,10.76,0,0,1-7.79,0,8.39,8.39,0,0,1-2.92-2,8.79,8.79,0,0,1-1.81-3.07,12.51,12.51,0,0,1,0-7.78,9.5,9.5,0,0,1,1.81-3.12,8.31,8.31,0,0,1,2.92-2.11,10.24,10.24,0,0,1,7.79,0,8.57,8.57,0,0,1,2.94,2.11,9.23,9.23,0,0,1,1.84,3.12,12.51,12.51,0,0,1,0,7.78Z"/><path class="cls-1" d="M76.21,70.39q-6.94,0-9.43,6.75V71H57.59v3.08h5.57V92.49H57.59v3.09H72.35V92.49H66.78V84.55a12.93,12.93,0,0,1,.65-4.1,11.13,11.13,0,0,1,1.86-3.53,9.54,9.54,0,0,1,3-2.5,8.17,8.17,0,0,1,4-1,10.28,10.28,0,0,1,4.64,1l1.19-3a8.83,8.83,0,0,0-2.57-.85A18.4,18.4,0,0,0,76.21,70.39Z"/><polygon class="cls-1" points="110.14 70.97 104.96 70.97 90.94 84.22 90.94 61.12 87.32 61.12 87.32 95.58 90.94 95.58 90.94 88.6 95.38 84.54 105.44 95.58 110.59 95.58 97.81 82.27 110.14 70.97"/><path class="cls-1" d="M58.56,45.57h7.37V25.09q0-6.87-2.88-10.18a10,10,0,0,0-8-3.31A11.39,11.39,0,0,0,47.7,14a12.26,12.26,0,0,0-4.1,6.71V12.38H36.23V45.57H43.6V30.68c0-3.89.87-6.94,2.59-9.15a8.09,8.09,0,0,1,6.67-3.31,5.65,5.65,0,0,1,4.24,1.5c1,1,1.46,2.79,1.46,5.37Z"/><path class="cls-1" d="M96.38,46.39V39.76H91.87a5.56,5.56,0,0,1-4.13-1.57,6.5,6.5,0,0,1-1.57-4.79V19.88H95.9v-7H84.59A19.8,19.8,0,0,0,89.36,0h-7a12.92,12.92,0,0,1-12.9,12.9v7H78.8V33.37a14.22,14.22,0,0,0,1,5.26,11.69,11.69,0,0,0,2.65,4.12,12,12,0,0,0,4.13,2.67,14.14,14.14,0,0,0,5.34,1Z"/><path class="cls-1" d="M130.05,35.67a14.9,14.9,0,0,1-4.58,3,15.93,15.93,0,0,1-6.25,1.12,11.05,11.05,0,0,1-7.32-2.27,9,9,0,0,1-3.25-5.7h27.81a25.47,25.47,0,0,0-1.32-8.49,18.65,18.65,0,0,0-3.65-6.36,15.52,15.52,0,0,0-5.61-4,18.8,18.8,0,0,0-7.3-1.37,18.56,18.56,0,0,0-7.08,1.3A16.33,16.33,0,0,0,106,16.53a16.6,16.6,0,0,0-3.56,5.52,18.77,18.77,0,0,0-1.26,7,17.63,17.63,0,0,0,1.37,7.05,16.47,16.47,0,0,0,3.79,5.47,17.29,17.29,0,0,0,5.74,3.57,19.49,19.49,0,0,0,7.15,1.29A25,25,0,0,0,127,45.22a17.24,17.24,0,0,0,6.78-4.36ZM112.32,20.16a10.7,10.7,0,0,1,6.26-1.94,10.54,10.54,0,0,1,6.23,1.94,7.79,7.79,0,0,1,3.32,5.15H109A7.72,7.72,0,0,1,112.32,20.16Z"/><path class="cls-1" d="M148.91,29.89a12.9,12.9,0,0,1,12.7-10.74v-7a19.8,19.8,0,0,0-12.7,4.6V12.38h-7.37v34h7.37Z"/><polygon class="cls-1" points="29.7 38.95 7.37 38.95 7.37 26.79 24.78 26.79 24.78 20.16 7.37 20.16 7.37 8.83 29.7 8.83 29.7 2.2 0 2.2 0 45.57 29.7 45.57 29.7 38.95"/><path class="cls-1" d="M192.58,50.37h-31V57h29.7v0h1.27a4.57,4.57,0,0,1,4.56,4.57V84.32a4.56,4.56,0,0,1-4.56,4.56H146.8a28.78,28.78,0,0,0,10.39-22.14h-6.6a22.27,22.27,0,0,1-20.1,22.14h-2.15v6.71a22.27,22.27,0,0,1,22.25,22.25h6.6a28.8,28.8,0,0,0-10.65-22.36h46a11.18,11.18,0,0,0,11.16-11.16V61.53A11.17,11.17,0,0,0,192.58,50.37Z"/></g></g></svg>