<svg xmlns="http://www.w3.org/2000/svg" viewBox="0 0 18.03 17.96"><defs><style>.cls-1{fill:#fff;}</style></defs><title>IG_Blanco</title><g id="Layer_2" data-name="Layer 2"><g id="Layer_1-2" data-name="Layer 1"><path class="cls-1" d="M6.34,0h5.31l.18,0c.68.05,1.36.06,2,.17a4.55,4.55,0,0,1,3.26,2.05A5.57,5.57,0,0,1,18,5c0,.46.05.92.07,1.38v5.28c0,.07,0,.14,0,.21,0,.6-.05,1.2-.13,1.79a4.66,4.66,0,0,1-3.55,4.06A11.71,11.71,0,0,1,11.5,18c-1.77,0-3.54,0-5.31,0a11.74,11.74,0,0,1-2.05-.17,4.59,4.59,0,0,1-3.9-3.62A11.56,11.56,0,0,1,0,11.46C0,9.7,0,7.93,0,6.17a15.44,15.44,0,0,1,.16-2A4.6,4.6,0,0,1,2.23.91,5.57,5.57,0,0,1,5,.07ZM9,16.36v0c.76,0,1.51,0,2.27,0s1.41,0,2.11-.11a3.32,3.32,0,0,0,1.84-.77,3.25,3.25,0,0,0,1.09-2.38c.07-1,.08-2.1.1-3.15s0-2.12,0-3.18c0-.7,0-1.4-.11-2.1a3.08,3.08,0,0,0-1.1-2.15,3.52,3.52,0,0,0-2.09-.76C12,1.66,11,1.64,9.89,1.62s-2.08,0-3.12,0c-.71,0-1.43,0-2.14.11a3.22,3.22,0,0,0-1.83.77A3.26,3.26,0,0,0,1.72,4.9C1.65,6,1.63,7,1.62,8.1s0,2.36,0,3.55a9.1,9.1,0,0,0,.18,2.08A3,3,0,0,0,4,16.09a6.86,6.86,0,0,0,1.35.19C6.59,16.32,7.8,16.33,9,16.36Z"/><path class="cls-1" d="M12.72,4.19a1.09,1.09,0,0,0,1.07,1.08A1.18,1.18,0,0,0,14.93,4.2,1.19,1.19,0,0,0,13.8,3.1,1.11,1.11,0,0,0,12.72,4.19Z"/><path class="cls-1" d="M9,4.36A4.71,4.71,0,0,0,4.36,9,4.69,4.69,0,0,0,9,13.59,4.62,4.62,0,0,0,9,4.36ZM9,12a3,3,0,1,1,3-3A3,3,0,0,1,9,12Z"/><path class="cls-1" d="M12.72,4.19A1.11,1.11,0,0,1,13.8,3.1a1.19,1.19,0,0,1,1.13,1.1,1.18,1.18,0,0,1-1.14,1.07A1.09,1.09,0,0,1,12.72,4.19Z"/></g></g></svg>